HIERARCHY
ROOT Hips
{
	OFFSET 0.000000 88.474243 0.000000
	CHANNELS 6 Xposition Yposition Zposition Zrotation Yrotation Xrotation 
	JOINT Hips_Spine
	{
		OFFSET 0.000000 0.000000 0.000000
		CHANNELS 3 Zrotation Yrotation Xrotation
		JOINT Spine
		{
			OFFSET 0.005100 8.711998 -0.691000
			CHANNELS 3 Zrotation Yrotation Xrotation
			JOINT Spine1
			{
				OFFSET -0.009200 8.660301 -1.275000
				CHANNELS 3 Zrotation Yrotation Xrotation
				JOINT Spine2
				{
					OFFSET 0.006300 9.852501 -1.857000
					CHANNELS 3 Zrotation Yrotation Xrotation
					JOINT Spine2_Neck
					{
						OFFSET 0.000000 0.000000 0.000000
						CHANNELS 3 Zrotation Yrotation Xrotation
						JOINT Neck
						{
							OFFSET 0.016300 11.420799 -0.263300
							CHANNELS 3 Zrotation Yrotation Xrotation
							End Site #name: Head
							{
								OFFSET -0.019200 9.262405 2.362500
							}
						}
					}
					JOINT Spine2_LeftShoulder
					{
						OFFSET 0.000000 0.000000 0.000000
						CHANNELS 3 Zrotation Yrotation Xrotation
						JOINT LeftShoulder
						{
							OFFSET 5.616900 6.732201 -0.345700
							CHANNELS 3 Zrotation Yrotation Xrotation
							JOINT LeftArm
							{
								OFFSET 10.664888 -0.183372 -2.440700
								CHANNELS 3 Zrotation Yrotation Xrotation
								JOINT LeftForeArm
								{
									OFFSET 27.459126 0.000000 0.000000
									CHANNELS 3 Zrotation Yrotation Xrotation
									End Site #name: LeftHand
									{
										OFFSET 21.306858 0.000000 0.000000
									}
								}
							}
						}
					}
					JOINT Spine2_RightShoulder
					{
						OFFSET 0.000000 0.000000 0.000000
						CHANNELS 3 Zrotation Yrotation Xrotation
						JOINT RightShoulder
						{
							OFFSET -5.580300 6.737503 -0.344400
							CHANNELS 3 Zrotation Yrotation Xrotation
							JOINT RightArm
							{
								OFFSET -10.679335 -0.188484 -2.383900
								CHANNELS 3 Zrotation Yrotation Xrotation
								JOINT RightForeArm
								{
									OFFSET -27.503529 0.000000 0.000000
									CHANNELS 3 Zrotation Yrotation Xrotation
									End Site #name: RightHand
									{
										OFFSET -21.306808 0.000000 0.000000
									}
								}
							}
						}
					}
				}
			}
		}
	}
	JOINT Hips_LeftUpLeg
	{
		OFFSET 0.000000 0.000000 0.000000
		CHANNELS 3 Zrotation Yrotation Xrotation
		JOINT LeftUpLeg
		{
			OFFSET 6.857700 -6.739601 0.312100
			CHANNELS 3 Zrotation Yrotation Xrotation
			JOINT LeftLeg
			{
				OFFSET -0.367590 -34.731552 -4.572400
				CHANNELS 3 Zrotation Yrotation Xrotation
				End Site #name: LeftFoot
				{
					OFFSET 0.367590 -34.656704 -6.067400
				}
			}
		}
	}
	JOINT Hips_RightUpLeg
	{
		OFFSET 0.000000 0.000000 0.000000
		CHANNELS 3 Zrotation Yrotation Xrotation
		JOINT RightUpLeg
		{
			OFFSET -6.876100 -6.733299 0.301000
			CHANNELS 3 Zrotation Yrotation Xrotation
			JOINT RightLeg
			{
				OFFSET 0.347353 -34.795158 -4.515900
				CHANNELS 3 Zrotation Yrotation Xrotation
				End Site #name: RightFoot
				{
					OFFSET -0.347353 -34.589367 -6.070300
				}
			}
		}
	}
}
MOTION
Frames: 9
Frame Time: 0.041667
0.057282 0.010389 -0.098070 -5.958461 63.437344 -3.203995 0.000000 -0.000000 0.000000 -2.306917 -0.505272 1.147594 -0.070341 -1.010710 3.919797 0.000000 0.000000 0.000000 0.816750 -1.003367 0.785492 -1.169688 -4.213430 -2.374905 0.161646 -0.473598 0.985240 -13.616447 1.398812 0.925420 -70.094790 3.719943 6.088681 -0.030264 -15.312337 2.235709 -1.161472 -1.221213 2.475915 11.363098 13.576756 4.606750 27.715408 14.558415 -37.220212 -17.219670 76.708384 -11.582498 0.000000 -0.000000 -0.000000 -3.677943 11.520663 -15.291369 -6.573676 -29.156905 -0.968029 0.000000 -0.000000 -0.000000 0.605216 -5.416643 -11.717944 1.371803 -0.529431 5.620378 
-0.040850 -0.127404 -0.162202 -4.289152 60.834424 0.484858 -0.000000 -0.000000 0.000000 -3.755340 -8.171545 2.827902 0.777513 -1.102979 1.807875 0.000000 0.000000 0.000000 0.984733 -0.625143 2.137339 -0.573401 -6.486076 -3.329717 0.538619 -0.798593 0.705090 -8.890946 -5.237208 1.336009 -74.279253 -9.637655 -3.443733 -2.168743 -8.989631 1.648180 0.336604 -1.311241 2.898688 14.450443 12.399905 3.101375 27.560675 17.782406 -43.233858 -7.884437 73.197172 -2.247924 0.000000 -0.000000 -0.000000 -3.237113 11.822942 -17.308363 -5.548804 -24.654801 -2.866168 0.000000 -0.000000 0.000000 -0.929622 0.001518 -10.985224 5.489054 7.610188 4.315865 
-0.009590 -0.206464 -0.168742 -5.677637 60.707449 -0.372457 0.000000 -0.000000 -0.000000 -3.070548 -10.961605 1.565989 1.535015 -1.017375 1.602395 0.000000 0.000000 0.000000 1.981324 -0.901397 2.507310 -0.235779 -8.405540 -4.170109 1.084591 -0.802541 0.424809 -9.086651 -3.186662 0.388442 -75.735158 -10.692599 -7.310651 -1.731366 -0.888113 1.307090 1.169941 -1.366508 2.852149 14.909041 8.689217 2.588360 26.676181 18.609753 -46.773196 -6.490623 76.181548 -0.545738 0.000000 -0.000000 -0.000000 -2.017242 12.871056 -16.332606 -4.541790 -22.497597 -3.244386 0.000000 -0.000000 -0.000000 -1.154219 -3.124523 -10.504161 7.501795 11.130906 4.782112 
0.086057 -0.296261 -0.180740 -7.713438 63.219425 -2.933939 -0.000000 -0.000000 -0.000000 -1.078477 -11.418613 0.403617 2.113248 -0.951159 1.727642 0.000000 0.000000 0.000000 2.599047 -0.881660 3.048251 -0.390188 -8.491894 -5.064896 1.445748 -0.815594 0.481815 -9.561177 -2.442314 -0.112140 -78.657711 -12.146750 -8.872938 -1.822017 3.648938 1.230018 1.837282 -1.434142 2.951873 13.533578 1.290590 0.950620 24.319172 18.569925 -50.998404 -6.343034 78.217722 -0.348166 0.000000 -0.000000 -0.000000 -1.419115 13.246771 -14.520015 -3.401745 -23.217249 -4.508728 0.000000 -0.000000 -0.000000 -1.135653 -8.713081 -9.611393 8.131355 12.822222 5.169245 
0.159020 -0.356275 -0.228812 -9.692558 65.322078 -5.437995 -0.000000 -0.000000 -0.000000 1.546709 -9.734287 -0.837344 2.715797 -0.825754 1.944066 0.000000 0.000000 0.000000 3.069955 -0.817988 3.379773 -0.974926 -9.140442 -4.323637 1.666139 -0.730457 0.666692 -9.680752 -0.865707 -1.603304 -80.088366 -13.375631 -8.085985 -1.938334 6.396462 1.211659 2.401066 -1.397937 3.046835 12.634283 -5.065889 0.917832 24.712725 19.091835 -51.607243 -8.319264 80.976609 -2.658187 0.000000 0.000000 -0.000000 -1.173202 13.519577 -13.154974 -3.003743 -24.831324 -5.793456 0.000000 -0.000000 -0.000000 -1.037218 -13.343539 -8.703838 7.917312 13.167453 5.346486 
0.209878 -0.378624 -0.307152 -11.197889 65.792781 -7.209996 -0.000000 -0.000000 -0.000000 3.318669 -8.130384 -1.328851 3.050082 -0.744230 2.006396 0.000000 0.000000 0.000000 3.319462 -0.761326 3.530331 -1.513606 -10.126922 -2.712601 1.789191 -0.604093 1.024536 -9.501227 -0.791040 -1.994163 -79.943406 -13.464949 -5.305198 -1.971140 6.386328 1.251457 2.745109 -1.290624 3.259051 12.305825 -7.201490 1.888158 29.221720 19.953445 -47.458198 -9.149054 78.933385 -3.670292 0.000000 0.000000 -0.000000 -1.150078 13.462269 -12.489853 -2.916461 -26.096710 -6.661231 0.000000 -0.000000 -0.000000 -0.513962 -15.966897 -8.082645 6.858423 12.844216 5.225239 
0.251200 -0.381101 -0.401378 -11.293500 64.845025 -7.083709 -0.000000 -0.000000 -0.000000 4.441127 -7.240704 -1.586466 3.109637 -0.695650 2.085898 0.000000 0.000000 0.000000 3.340978 -0.688695 3.574931 -1.897553 -11.501854 -1.045428 1.796047 -0.521490 1.208234 -9.257853 -0.862362 -1.884935 -79.087227 -13.101227 -2.462944 -1.864759 4.177831 1.423617 2.869694 -1.238174 3.305867 12.877963 -7.763140 2.966529 36.192322 20.079152 -40.398244 -7.129936 71.080833 -1.815902 0.000000 0.000000 -0.000000 -1.177172 12.947388 -12.186697 -2.888811 -27.160470 -7.641155 0.000000 -0.000000 -0.000000 0.220417 -18.099779 -7.794265 5.418518 12.258249 5.029679 
0.301286 -0.387739 -0.491112 -10.838204 63.809244 -6.156115 0.000000 -0.000000 -0.000000 5.206832 -6.327396 -1.844414 3.016572 -0.695711 2.146271 0.000000 0.000000 0.000000 3.244016 -0.626745 3.495689 -2.433735 -12.901036 0.276891 1.720493 -0.525404 1.211049 -8.880841 -0.982993 -1.519231 -78.250912 -13.003583 0.036010 -1.760307 1.232401 1.651685 2.776972 -1.216457 3.149402 13.808337 -7.017623 4.089009 43.913944 18.892246 -30.659031 -5.563802 58.530278 -0.327724 0.000000 0.000000 -0.000000 -1.278646 12.344807 -12.022992 -2.744466 -28.023871 -8.748470 0.000000 -0.000000 -0.000000 0.889253 -20.444915 -7.965919 3.882743 11.432160 5.170219 
0.369357 -0.402865 -0.568144 -10.300434 63.656542 -5.118848 0.000000 -0.000000 -0.000000 5.445865 -5.822869 -2.263815 2.817801 -0.732463 2.166789 0.000000 0.000000 0.000000 3.069060 -0.586057 3.433223 -2.999367 -13.937770 1.094989 1.602017 -0.569893 1.144338 -8.509977 -0.675860 -1.304878 -77.546167 -13.339564 2.248969 -1.652745 -1.484268 1.884387 2.606416 -1.251556 3.004042 14.912289 -6.444836 4.967577 48.576987 16.949360 -24.118054 -5.118056 49.357976 0.053387 0.000000 0.000000 -0.000000 -1.455367 11.746106 -11.959940 -2.581403 -28.507162 -9.675360 0.000000 -0.000000 -0.000000 1.373030 -22.410967 -8.408153 2.515483 10.315303 5.580468 
